<?xml version="1.0" encoding="utf-8"?>
<svg version="1.1" id="Layer_1" x="0px" y="0px" viewBox="0 0 682.905 1675.065" enable-background="new 0 0 855.363 1692.053" xmlns="http://www.w3.org/2000/svg">
  <path id="path3" clip-rule="evenodd" d="M 285.076 157.696 C 283.172 176.515 277.272 194.163 276.738 216.455 C 289.126 225.898 298.171 241.819 310.1 251.427 C 319.54 259.039 348.578 270.43 360.139 275.273 C 375.316 281.551 402.621 282.89 410.204 297.46 C 412.397 301.837 411.254 305.518 412.96 310.248 C 422.727 336.716 429.958 372.816 436.594 402.373 C 437.542 413.49 438.49 424.613 439.425 435.695 C 449.276 482.002 452.082 535.413 461.618 585.032 C 465.977 607.674 461.689 633.001 465.783 654.895 C 469.244 672.983 464.717 696.138 464.431 712.184 C 463.506 761.793 462.767 805.187 462.987 851.976 C 457.637 854.219 455.573 853.442 454.688 861.454 C 458.444 867.512 466.019 911.003 461.618 925.072 C 460.344 929.22 455.046 931.076 453.298 934.551 C 443.447 953.844 428.262 981.545 404.665 983.79 C 405.269 972.753 409.634 968.948 411.632 959.983 C 414.822 944.967 410.727 923.452 407.387 913.863 C 406.026 913.384 404.665 912.895 403.229 912.309 L 403.229 913.863 C 395.192 929.911 403.835 952.98 383.806 955.192 C 383.497 934.369 384.711 894.936 389.326 877.377 C 391.226 870.155 395.038 863.441 396.295 855.177 L 393.532 855.177 C 390.948 853.192 385.613 853.442 380.996 853.528 C 377.402 859.373 376.572 864.388 376.785 875.808 C 361.723 897.587 365.126 960.387 367.098 999.71 C 367.518 1007.635 372.03 1016.026 369.903 1025.158 C 368.762 1029.784 363.993 1035.251 362.935 1039.404 C 363.388 1057.441 363.828 1075.393 364.34 1093.481 C 364.414 1104.36 370.584 1113.707 367.1 1125.266 C 366.342 1127.648 362.405 1129.636 361.52 1131.525 C 358.927 1137.375 360.916 1146.038 360.139 1150.587 C 357.396 1167.034 366.191 1176.723 361.52 1193.547 C 352.13 1227.589 345.29 1264.881 335.131 1299.945 C 332.792 1307.914 327.334 1316.044 325.378 1323.848 C 319.271 1348.084 330.218 1373.529 324.007 1395.336 C 319.761 1410.3 309.004 1410.565 308.713 1431.851 C 327.565 1460.601 303.482 1516.763 294.852 1539.873 C 290.106 1552.245 290.608 1561.853 275.334 1562.131 C 271.521 1558.825 265.451 1558.825 258.644 1558.918 C 255.805 1565.329 253.182 1576.042 251.68 1579.52 C 250.313 1580.632 248.935 1581.759 247.547 1582.891 C 245.541 1589.378 252.052 1603.742 248.935 1612.93 C 248.294 1614.834 243.944 1618.556 243.38 1620.886 C 243.869 1623.559 244.247 1626.252 244.711 1628.843 C 244.477 1630.751 242.507 1635.511 242.02 1638.363 C 223.687 1651.355 159.049 1665.374 157.148 1627.306 C 161.965 1621.921 162.073 1615.522 165.524 1608.164 C 173.292 1591.552 180.024 1589.629 175.247 1565.329 C 175.718 1555.799 176.208 1546.267 176.618 1536.764 C 174.003 1527.327 165.932 1523.086 164.113 1511.297 C 166.343 1509.157 165.711 1510.267 166.922 1506.463 C 152.154 1494.679 157.639 1471.678 151.618 1449.344 C 145.868 1427.874 145.179 1398.71 140.481 1374.641 C 140.036 1362.002 139.581 1349.197 139.083 1336.56 C 135.028 1316.044 136.281 1289.827 132.161 1268.187 C 131.696 1256.577 131.213 1244.891 130.795 1233.21 C 125.116 1211.04 117.695 1195.417 112.681 1169.701 C 112.238 1146.389 111.783 1123.095 111.289 1099.856 C 111.781 1097.045 113.878 1089.214 112.681 1083.933 C 106.029 1053.731 101.944 1011.977 94.632 980.678 C 90.262 962.066 94.896 937.542 90.423 918.663 C 86.411 901.43 80.167 886.59 73.763 872.658 C 69.372 862.977 68.687 847.225 57.1 845.574 C 52.519 848.726 41.875 844.616 34.832 844.063 C 34.915 783.412 17.111 740.883 7.033 689.892 C 6.093 668.739 5.141 647.499 4.232 626.38 C -1.671 595.213 3.625 566.435 9.844 537.402 C 17.556 501.124 18.545 464.182 26.456 429.376 C 27.421 419.779 28.319 410.334 29.265 400.776 C 35.519 373.636 43.124 329.316 55.735 308.631 C 66.946 290.116 95.112 290.336 114.055 279.989 C 126.106 273.452 140.971 268.904 152.98 260.985 C 163.178 254.24 174.538 234.122 183.618 224.372 C 183.884 194.815 177.828 177.799 176.618 152.925 L 165.522 152.925 C 164.15 150.128 163.784 150.239 162.714 146.573 C 156.098 137.086 158.734 114.804 161.317 103.681 C 167.529 101.569 170.256 103.417 171.043 94.123 C 166.247 85.628 170.255 61.229 172.487 54.436 C 180.925 28.297 202.481 5.565 230.843 3.587 C 266.214 1.129 292.957 31.16 299.002 63.956 C 297.578 77.717 296.201 91.52 294.851 105.367 C 303.443 108.573 307.454 111.047 308.711 122.809 C 300.604 136.898 306.043 157.843 284.994 157.719 L 285.076 157.696 Z M 362.926 511.961 C 344.761 558.563 359.692 656.415 368.459 701.073 L 368.459 721.719 C 372.362 741.668 373.606 762.615 379.585 778.903 C 380.987 779.494 382.392 779.977 383.798 780.478 L 383.798 778.903 C 384.903 777.031 384.816 776.21 385.148 772.613 C 379.243 761.154 386.625 737.818 383.798 723.279 C 382.509 716.924 380.946 704.899 379.585 697.829 L 379.585 651.869 C 374.354 624.263 375.032 593.014 369.896 566.055 C 366.705 549.564 373.3 524.98 365.726 513.561 C 364.266 512.293 365.289 512.917 362.905 511.963 L 362.926 511.961 Z M 102.923 529.389 C 99.819 540.261 101.712 552.753 98.799 564.445 C 97.393 569.853 92.881 577.948 91.866 583.444 C 89.815 594.225 97.665 606.036 94.632 620.054 C 91.03 636.414 85.883 675.534 91.866 696.306 L 94.632 696.306 L 94.632 693.099 C 102.39 679.904 102.015 659.044 105.726 640.66 C 112.925 605.089 120.422 592.019 109.89 553.29 C 107.538 544.487 109.738 537.085 105.726 531.113 C 104.316 529.784 105.34 530.448 102.922 529.368 L 102.923 529.389 Z M 230.843 1017.246 C 229.023 1020.232 229.023 1018.532 228.086 1023.571 C 215.692 1044.593 232.742 1076.968 228.086 1099.854 C 221.592 1131.525 228.834 1159.979 235.016 1190.393 C 234.561 1203.03 234.097 1215.819 233.642 1228.535 C 238.83 1257.626 234.773 1300.132 240.626 1333.358 L 244.711 1333.358 C 257.965 1306.967 251.071 1248.623 258.644 1215.819 C 259.54 1211.937 263.026 1176.677 262.837 1176.033 C 262.283 1174.433 257.886 1173.946 257.276 1172.958 C 255.079 1168.814 257.924 1162.049 255.879 1158.555 C 253.912 1155.162 248.493 1155.208 246.144 1152.266 C 242.209 1147.288 237.806 1129.926 236.439 1123.581 C 232.348 1105.356 246.295 1093.068 248.933 1082.294 C 250.612 1075.507 236.904 1028.369 235.015 1018.806 C 233.637 1018.243 232.228 1017.766 230.834 1017.247 L 230.843 1017.246 Z" fill-rule="evenodd" style="fill: rgb(233, 233, 233);"/>
</svg>