<?xml version="1.0" encoding="utf-8"?>
<svg version="1.1" id="Layer_1" x="0px" y="0px" viewBox="0 0 682.905 1675.065" enable-background="new 0 0 855.363 1692.053" xmlns="http://www.w3.org/2000/svg" xmlns:bx="https://boxy-svg.com">
  <path d="M 1793.06 4997.583 C 1793.651 4997.798 1802.194 4997.199 1802.515 4997.176 C 1809.472 4996.566 1816.358 4990.513 1817.598 4989.931 C 1825.35 4982.94 1821.371 4985.684 1824.721 4981.719 C 1826.176 4979.326 1828.606 4977.607 1829.145 4974.599 C 1829.921 4973.938 1830.801 4973.475 1831.635 4972.918 C 1832.103 4972.295 1834.302 4966.829 1834.458 4965.567 C 1834.846 4965.271 1835.245 4964.973 1835.64 4964.67 C 1838.597 4964.123 1844.863 4960.348 1847.432 4958.733 C 1852.349 4956.107 1857.247 4948.301 1860.358 4942.987 C 1861.044 4941.945 1863.921 4939.48 1866.394 4933.1 C 1868.274 4928.472 1872.821 4912.228 1872.821 4912.228 C 1872.812 4911.189 1875.813 4893.946 1873.581 4884.216 C 1872.593 4878.4 1871.577 4875.133 1871.419 4865.276 C 1871.759 4864.705 1872.079 4864.114 1872.412 4863.524 C 1873.092 4859.152 1871.839 4860.178 1871.595 4857.449 C 1870.253 4847.199 1868.692 4847.866 1869.69 4845.518 C 1869.382 4843.902 1869.824 4842.08 1868.942 4840.665 C 1865.908 4816.913 1862.728 4794.423 1849.887 4773.886 C 1844.504 4765.429 1839.745 4761.984 1839.212 4759.186 C 1838.664 4755.198 1837.548 4751.077 1838.486 4747.004 C 1839.297 4746.602 1839.701 4745.73 1839.891 4744.78 C 1842.489 4740.686 1845.34 4737.617 1849.492 4735.17 C 1850.329 4734.129 1857.767 4730.186 1859.104 4728.584 C 1861.246 4728.308 1862.195 4726.266 1864.154 4726.396 C 1864.866 4727.399 1865.722 4728.254 1866.639 4728.997 C 1872.494 4729.727 1872.488 4727.451 1874.215 4727.12 C 1876.873 4726.421 1879.617 4726.358 1882.254 4725.506 C 1894.92 4721.672 1890.662 4724.185 1899.601 4722.631 C 1902.542 4722.34 1905.382 4721.217 1908.312 4720.822 C 1909.498 4721.037 1910.734 4722.012 1911.919 4721.109 C 1913.39 4720.368 1912.965 4718.229 1913.398 4716.823 C 1913.456 4716.789 1921.038 4714.704 1924.612 4712.778 C 1924.753 4712.742 1925.039 4712.67 1925.18 4712.635 C 1927.392 4711.219 1929.842 4710.273 1931.859 4708.458 C 1932.004 4708.424 1932.292 4708.355 1932.437 4708.324 C 1938.844 4703.829 1957.561 4685.144 1959.241 4683.356 C 1959.342 4683.31 1959.541 4683.221 1959.642 4683.174 C 1960.265 4682.446 1965.966 4676.472 1966.831 4675.887 C 1966.847 4675.806 1966.877 4675.643 1966.892 4675.56 C 1966.892 4675.56 1984.278 4658.035 1984.285 4658.029 C 1984.288 4658.026 1996.622 4644.29 1996.622 4644.29 C 1996.652 4644.206 1996.71 4644.041 1996.74 4643.958 C 2002.062 4637.741 2016.555 4619.046 2020.111 4616.994 C 2020.123 4616.919 2020.143 4616.769 2020.154 4616.692 C 2035.374 4601.94 2046.304 4590.113 2053.409 4582.109 C 2054.325 4581.633 2089.736 4544.194 2095.796 4526.344 C 2095.898 4526.182 2096.108 4525.863 2096.212 4525.701 C 2096.414 4524.57 2104.181 4507.61 2096.622 4488.828 C 2090.632 4477.067 2056.898 4429.97 2055.759 4428.699 C 2055.735 4428.523 2055.684 4428.172 2055.659 4427.994 C 2055.154 4427.639 2054.782 4427.108 2054.465 4426.539 C 2054.472 4426.364 2054.484 4426.004 2054.489 4425.824 C 2039.716 4403.717 2005.733 4351.238 1983.729 4341.35 C 1983.628 4341.209 1983.421 4340.933 1983.319 4340.793 C 1973.481 4337.952 1972.298 4343.076 1961.392 4345.51 C 1958.844 4340.014 1998.288 4231.498 2006.505 4202.586 C 2009.152 4193.528 2050.927 4041.637 2050.927 4041.637 C 2047.092 4031.09 1966.6 4018.509 1963.637 4015.717 C 1964.319 4005.124 1965.921 4003.629 1963.765 4002.832 C 1956.928 3999.941 1945.199 3998.65 1942.161 3996.57 C 1942.218 3992.968 1941.984 3994.829 1941.889 3992.201 C 1941.713 3991.847 1941.544 3991.477 1941.379 3991.096 C 1941.24 3987.978 1941.127 3989.223 1940.785 3986.465 C 1940.615 3986.105 1940.453 3985.736 1940.297 3985.355 C 1940.107 3981.962 1936.991 3967.297 1936.981 3964.846 C 1936.853 3964.695 1936.605 3964.385 1936.477 3964.234 C 1936.477 3964.234 1932.261 3939.993 1926.644 3892.617 C 1925.919 3891.031 1926.094 3889.212 1926.222 3887.462 C 1929.965 3855.228 1925.501 3861.16 1930.292 3806.562 C 1941.763 3726.898 1946.957 3766.396 1950.492 3658.296 C 1949.555 3585.682 1959.53 3548.641 1959.957 3544.137 L 1960.141 3544.274 C 1960.288 3543.413 1960.466 3542.547 1960.641 3541.666 L 1960.799 3541.69 C 1961.161 3539.959 1961.083 3540.867 1961.236 3539.545 L 1961.598 3539.614 C 1961.588 3539.331 1961.571 3538.759 1961.564 3538.471 C 1961.661 3538.468 1961.867 3538.457 1961.966 3538.45 C 1961.957 3538.184 1961.937 3537.652 1961.926 3537.386 C 1962.14 3537.133 1962.358 3536.865 1962.582 3536.578 C 1962.638 3535.59 1962.734 3534.844 1963.768 3533.351 C 1963.895 3532.643 1964.158 3531.964 1964.303 3531.231 L 1964.635 3531.231 C 1964.611 3531.055 1964.567 3530.703 1964.543 3530.531 L 1965.018 3530.553 C 1964.975 3530.374 1964.89 3530.014 1964.852 3529.835 L 1965.346 3529.806 C 1965.306 3529.632 1965.223 3529.284 1965.183 3529.112 L 1965.632 3529.043 C 1965.609 3528.882 1965.561 3528.558 1965.536 3528.4 L 1965.944 3528.347 C 1965.924 3528.172 1965.879 3527.828 1965.858 3527.656 L 1966.311 3527.624 C 1966.284 3527.454 1966.227 3527.117 1966.199 3526.948 L 1966.674 3526.887 C 1966.619 3526.714 1966.513 3526.366 1966.458 3526.194 L 1966.968 3526.259 C 1966.932 3526.073 1966.86 3525.695 1966.821 3525.503 L 1967.279 3525.506 C 1967.247 3525.316 1967.186 3524.935 1967.156 3524.745 L 1967.684 3524.827 C 1967.632 3524.643 1967.531 3524.274 1967.48 3524.092 L 1967.934 3524.014 C 1967.907 3523.844 1967.852 3523.506 1967.827 3523.337 L 1968.094 3523.337 C 1968.668 3522.169 1969.318 3521.027 1969.628 3519.711 L 1969.816 3519.783 C 1975.814 3500.903 1972.597 3506.701 1974.603 3497.04 C 1976.531 3485.837 1979.316 3480.894 1983.971 3462.833 C 1997.582 3402.258 2009.24 3388.997 2009.618 3387.945 C 2010.583 3388.052 2010.803 3386.83 2010.966 3385.985 C 2016.629 3346.869 2019.898 3361.068 2013.728 3334.769 C 2011.612 3325.755 1946.086 3347.31 1939.711 3356.473 C 1936.318 3361.352 1935.644 3368.842 1935.118 3392.815 C 1934.744 3412.847 1926.047 3448.537 1921.314 3462.978 C 1911.753 3491.718 1918.383 3500.831 1919.915 3506.269 C 1919.902 3520.761 1915.704 3527.016 1905.664 3559.412 C 1905.528 3559.854 1891.485 3609.165 1886.364 3625.511 C 1885.967 3625.537 1885.576 3625.534 1885.195 3625.511 C 1879.196 3599.339 1867.699 3559.791 1865.326 3550.28 C 1861.682 3533.658 1865.293 3522.752 1862.732 3512.312 C 1862.464 3511.182 1862.024 3510.058 1862.165 3508.828 C 1865.058 3481.204 1859.209 3443.043 1858.71 3435.925 C 1859.762 3403.54 1860.647 3393.736 1849.043 3386.774 C 1831.368 3376.168 1806.838 3371.502 1794.559 3389.877 C 1783.187 3406.893 1792.244 3421.019 1799.441 3457.858 C 1799.581 3458.898 1810.533 3514.946 1812.2 3519.473 L 1812.452 3519.364 C 1812.445 3519.609 1812.43 3520.093 1812.424 3520.334 C 1816.374 3531.67 1813.047 3533.787 1817.674 3549.583 L 1817.946 3549.58 C 1817.941 3549.764 1817.929 3550.123 1817.92 3550.303 C 1818.003 3550.555 1818.171 3551.061 1818.256 3551.317 L 1818.382 3551.399 C 1823.443 3566.304 1825.111 3579.024 1827.392 3619.154 C 1833.848 3665.865 1823.187 3722.043 1827.221 3744.822 C 1829.829 3782.56 1841.446 3807.929 1841 3838.619 C 1842.676 3853.618 1836.92 3861.142 1835.942 3870.459 L 1835.757 3870.357 C 1833.228 3885.365 1819.843 3920.906 1819.641 3921.948 C 1818.543 3924.338 1813.563 3938.268 1812.635 3939.64 C 1812.154 3941.218 1811.595 3942.768 1810.867 3944.214 C 1810.846 3944.442 1810.807 3944.889 1810.785 3945.114 C 1810.664 3945.28 1810.428 3945.614 1810.309 3945.779 C 1809.666 3947.569 1799.565 3974.211 1795.349 3983.708 C 1786.693 3985.225 1780.354 3985.375 1771.872 3991.134 C 1770.063 3992.603 1749.716 3990.969 1747.439 3990.515 C 1746.808 3989.037 1746.547 3987.263 1745.475 3986.095 C 1742.06 3982.279 1694.594 3988.986 1693.121 3988.325 C 1684.371 3990.426 1667.45 3992.732 1660.529 3995.364 C 1660.332 3997.305 1661.153 3999.015 1661.511 4000.829 C 1669.48 4032.46 1720.223 4407 1720.008 4408.295 C 1713.161 4411.248 1714.583 4431.547 1716.706 4436.467 C 1714.233 4452.41 1709.439 4467.843 1707.417 4483.875 C 1705.9 4492.236 1706.317 4495.797 1703.229 4501.618 C 1701.067 4505.644 1697.252 4535.518 1692.378 4554.991 C 1691.819 4556.6 1692.14 4558.32 1691.996 4559.984 C 1691.97 4563.171 1687.449 4578.438 1687.14 4579.492 C 1686.39 4582.827 1685.549 4582.217 1681.905 4591.09 C 1681.092 4590.196 1681.114 4588.817 1680.845 4587.631 C 1668.572 4524.332 1655.874 4506.153 1640.536 4488.499 C 1640.441 4488.478 1640.246 4488.43 1640.15 4488.409 C 1640.134 4488.284 1640.109 4488.04 1640.094 4487.918 C 1639.206 4487.289 1618.582 4463.263 1597.68 4482.626 C 1590.659 4488.424 1581.283 4516.876 1579.071 4521.571 C 1563.456 4565.049 1558.553 4627.028 1546.895 4663.898 C 1543.651 4676.265 1539.002 4692.335 1539.002 4692.335 L 1538.844 4692.338 C 1538.658 4693.38 1534.272 4711.072 1528.518 4713.954 C 1528.36 4713.963 1528.043 4713.981 1527.882 4713.992 C 1527.745 4714.168 1527.47 4714.518 1527.332 4714.694 C 1527.148 4714.718 1526.781 4714.772 1526.597 4714.798 C 1526.468 4714.924 1526.217 4715.168 1526.089 4715.292 C 1524.436 4715.705 1522.92 4716.626 1521.319 4717.21 C 1520.997 4717.451 1520.678 4717.692 1520.359 4717.926 C 1519.825 4718.084 1519.296 4718.25 1518.765 4718.404 C 1518.623 4718.538 1518.339 4718.803 1518.195 4718.935 C 1516.512 4719.517 1515.056 4720.746 1513.371 4721.313 C 1513.228 4721.422 1512.941 4721.634 1512.797 4721.742 C 1509.171 4723.025 1500.921 4724.771 1495.741 4728.011 C 1495.576 4728.025 1495.241 4728.047 1495.076 4728.058 C 1494.943 4728.219 1494.684 4728.537 1494.554 4728.696 C 1491.501 4729.243 1488.897 4730.547 1486.641 4732.277 C 1480.592 4734.973 1459.64 4737.934 1455.784 4740.48 C 1450.069 4743.781 1428.994 4747.718 1422.959 4750.176 C 1423.186 4750.139 1423.641 4750.068 1423.869 4750.032 C 1424.031 4750.926 1424.236 4751.856 1424.043 4752.776 C 1423.205 4753.368 1422.307 4753.828 1421.459 4754.392 C 1421.614 4754.515 1421.924 4754.759 1422.077 4754.88 C 1424.004 4763.812 1434.297 4759.58 1442.166 4757.345 C 1443.792 4757.386 1467.387 4753.735 1468.327 4753.605 C 1468.417 4753.834 1468.594 4754.296 1468.682 4754.526 C 1468.727 4754.288 1468.809 4753.811 1468.85 4753.573 C 1470.53 4753.954 1472.339 4753.714 1474.022 4753.34 C 1475.499 4753.395 1476.942 4753.828 1478.432 4753.682 C 1480.445 4753.754 1482.443 4753.204 1484.458 4753.333 C 1484.437 4753.061 1484.394 4752.514 1484.378 4752.24 C 1485.996 4752.095 1487.575 4752.504 1489.179 4752.608 C 1494.627 4757.221 1499.137 4754.627 1504.627 4754.708 C 1504.408 4758.106 1502.972 4759.685 1505.948 4765.041 C 1506.526 4765.489 1507.054 4766.021 1507.555 4766.584 C 1509.935 4767.537 1512.47 4766.543 1514.914 4766.345 C 1521.316 4765.969 1525.863 4758.681 1532.341 4761.272 C 1535.811 4762.86 1536.331 4762.367 1539.848 4761.436 C 1539.987 4761.316 1540.271 4761.077 1540.412 4760.96 C 1541.12 4760.848 1541.788 4760.55 1542.416 4760.144 C 1542.712 4760.126 1543.01 4760.108 1543.312 4760.084 C 1543.461 4759.912 1543.756 4759.567 1543.907 4759.393 C 1544.219 4759.386 1544.538 4759.372 1544.856 4759.358 C 1546.575 4757.988 1545.083 4758.824 1547.765 4757.253 C 1548.118 4757.244 1548.476 4757.235 1548.834 4757.22 C 1548.848 4757.051 1548.877 4756.711 1548.89 4756.542 C 1549.538 4756.535 1550.188 4756.524 1550.837 4756.502 C 1551.163 4756.276 1551.493 4756.043 1551.823 4755.809 C 1551.982 4755.803 1552.304 4755.788 1552.464 4755.78 C 1552.604 4755.621 1552.888 4755.302 1553.028 4755.141 C 1553.567 4755.087 1554.182 4755.105 1554.4 4754.383 C 1554.532 4754.369 1554.797 4754.348 1554.927 4754.335 C 1555.897 4753.489 1556.929 4752.726 1557.991 4752.052 C 1557.994 4751.908 1558.005 4751.621 1558.011 4751.477 C 1558.143 4751.481 1558.402 4751.487 1558.532 4751.492 C 1559.031 4750.03 1560.114 4748.967 1560.647 4747.518 C 1562.016 4744.651 1560.809 4742.442 1562.218 4738.002 C 1562.541 4737.303 1562.8 4736.562 1562.907 4735.775 C 1563.049 4735.614 1563.327 4735.297 1563.467 4735.138 C 1563.489 4734.959 1563.532 4734.605 1563.554 4734.426 C 1569.221 4725.063 1571.185 4711.62 1572.348 4707.324 C 1574.711 4693.823 1583.079 4662.407 1595.941 4630.247 L 1596.012 4630.154 C 1597.143 4627.211 1598.628 4624.465 1599.883 4621.589 L 1599.967 4621.539 C 1600.421 4620.499 1612.019 4594.367 1614.295 4591.059 C 1614.686 4590.938 1615.09 4590.882 1615.493 4590.799 C 1615.493 4590.8 1623.673 4615.147 1623.673 4615.148 C 1625.913 4626.612 1625.684 4642.887 1627.674 4649.686 C 1628.711 4656.141 1631.312 4665.268 1631.801 4668.717 C 1631.923 4668.869 1632.167 4669.166 1632.291 4669.317 C 1632.531 4671.413 1636.116 4683.164 1637.21 4685.532 C 1637.232 4685.705 1637.278 4686.043 1637.296 4686.216 C 1637.662 4687.065 1638.013 4687.922 1638.376 4688.77 C 1638.399 4688.943 1638.443 4689.284 1638.462 4689.455 C 1638.751 4689.927 1639.029 4690.408 1639.307 4690.886 C 1639.308 4691.068 1639.312 4691.435 1639.313 4691.619 C 1641.126 4695.442 1645.087 4704.395 1650.885 4712.218 C 1650.902 4712.332 1650.938 4712.569 1650.954 4712.684 C 1651.1 4712.687 1651.394 4712.698 1651.536 4712.702 C 1651.555 4712.828 1651.586 4713.083 1651.601 4713.207 C 1652.874 4714.798 1654.439 4716.04 1655.687 4717.664 C 1655.832 4717.693 1656.125 4717.745 1656.273 4717.772 C 1657.099 4718.48 1657.953 4719.144 1658.78 4719.851 C 1658.909 4719.873 1659.156 4719.913 1659.282 4719.933 C 1659.557 4720.498 1659.893 4720.544 1661.234 4721.259 C 1661.388 4721.285 1661.697 4721.331 1661.851 4721.353 C 1661.988 4721.504 1662.258 4721.806 1662.395 4721.954 C 1663.443 4722.101 1667.626 4724.133 1669.189 4724.295 C 1669.818 4724.757 1674.553 4725.679 1676.355 4725.66 C 1676.723 4725.912 1677.095 4726.162 1677.47 4726.41 C 1677.427 4726.637 1677.335 4727.089 1677.289 4727.316 C 1678.11 4729.021 1679.779 4730.692 1681.612 4729.812 C 1684.025 4728.421 1699.968 4724.718 1709.919 4729.326 C 1713.072 4730.566 1714.296 4732.764 1718.751 4732.953 C 1720.139 4733.054 1721.327 4731.9 1722.719 4731.921 C 1723.846 4731.59 1725.041 4731.702 1726.136 4731.185 C 1726.933 4730.821 1727.753 4730.534 1728.587 4730.291 C 1728.887 4730.657 1729.193 4731.015 1729.505 4731.372 C 1729.661 4731.383 1729.974 4731.402 1730.132 4731.411 C 1736.155 4735.183 1739.136 4736.426 1740.646 4737.795 C 1740.793 4737.818 1741.079 4737.853 1741.224 4737.875 C 1742.026 4738.385 1744.268 4739.867 1745.251 4740.673 C 1745.422 4740.687 1745.768 4740.708 1745.942 4740.72 C 1745.944 4740.895 1745.948 4741.244 1745.953 4741.419 C 1746.147 4741.433 1746.545 4741.462 1746.739 4741.48 C 1758.225 4753.256 1752.338 4747.526 1757.681 4755.919 C 1757.688 4756.095 1757.707 4756.44 1757.716 4756.617 C 1759.777 4759.999 1762.942 4770.995 1763.841 4775.013 C 1764.052 4775.395 1764.347 4775.706 1764.538 4776.103 C 1764.76 4776.368 1765.008 4776.585 1765.292 4776.77 C 1765.941 4782.857 1764.757 4791.293 1764.818 4798.87 C 1766.531 4792.35 1766.114 4793.745 1766.643 4792.429 C 1767.013 4792.426 1767.382 4792.415 1767.765 4792.403 C 1767.738 4792.839 1767.717 4793.269 1767.701 4793.702 C 1767.859 4793.863 1768.172 4794.193 1768.327 4794.359 C 1768.295 4794.714 1768.272 4795.066 1768.253 4795.418 C 1767.716 4796.517 1767.218 4797.638 1766.688 4798.737 C 1766.638 4799.064 1766.594 4799.388 1766.552 4799.703 C 1766.094 4800.532 1765.249 4805.437 1765.131 4806.248 C 1764.949 4806.619 1764.773 4806.986 1764.596 4807.345 C 1764.59 4809.849 1762.067 4826.424 1761.007 4828.627 C 1758.361 4830.859 1753.215 4830.698 1746.076 4845.105 C 1742.823 4851.389 1744.568 4857.352 1742.389 4865.024 C 1740.571 4871.758 1745.075 4883.256 1752.319 4882.278 C 1752.224 4884.035 1752.606 4885.787 1752.261 4887.534 C 1752.005 4889.586 1751.59 4891.668 1751.976 4893.716 C 1751.169 4911.136 1755.029 4915.418 1756.835 4926.679 C 1756.55 4928.631 1756.062 4928.773 1753.366 4934.665 C 1753.166 4934.648 1752.772 4934.616 1752.575 4934.602 C 1752.778 4941.537 1749.01 4945.974 1752.48 4957.268 L 1751.886 4956.992 C 1753.617 4958.546 1757.179 4967.694 1758.112 4970.798 C 1758.475 4972.144 1759.638 4972.819 1760.34 4973.884 C 1761.048 4975.495 1762.103 4982.314 1767.492 4981.861 C 1768.204 4982.599 1768.85 4983.429 1769.249 4984.449 C 1769.717 4985.702 1771.221 4985.77 1771.598 4987.129 C 1771.892 4986.196 1774.002 4986.183 1774.852 4987.933 C 1774.094 4988.029 1773.346 4988.077 1772.597 4988.191 C 1773.866 4988.98 1775.247 4988.584 1776.542 4988.038 C 1777.426 4988.81 1782.086 4992.729 1783.988 4992.597 C 1790.193 4998.347 1787.16 4995.131 1793.06 4997.583 M 1926.308 4603.811 C 1924.493 4602.913 1922.751 4601.837 1920.896 4601.034 C 1920.593 4600.549 1920.162 4600.104 1920.101 4599.474 C 1920.294 4598.581 1920.864 4597.847 1921.056 4596.943 C 1921.391 4594.758 1920.855 4592.525 1919.84 4590.717 C 1918.23 4587.904 1915.981 4585.652 1914.488 4582.739 C 1913.221 4580.378 1913.084 4577.508 1912.452 4574.871 C 1912.122 4573.637 1912.613 4572.377 1912.646 4571.128 C 1912.694 4569.138 1912.691 4567.137 1913.028 4565.16 C 1913.347 4563.075 1913.473 4560.7 1912.335 4558.939 C 1911.204 4557.172 1910.12 4555.364 1909.123 4553.489 C 1908.183 4551.852 1907.986 4549.831 1907.475 4547.986 C 1906.691 4544.282 1906.109 4540.499 1905.857 4536.677 C 1905.726 4532.754 1905.156 4528.882 1904.556 4525.034 C 1904.222 4523.069 1904.345 4521.036 1904.062 4519.061 C 1903.747 4516.88 1903.999 4514.635 1903.701 4512.45 C 1903.517 4511.1 1903.778 4509.657 1903.301 4508.37 C 1902.502 4506.056 1902.679 4503.48 1902.169 4501.072 C 1901.601 4498.391 1902.416 4495.673 1902.61 4492.973 C 1903.496 4485.867 1904.262 4478.747 1904.955 4471.617 C 1905.384 4468.675 1906.027 4465.763 1906.305 4462.795 C 1906.697 4460.732 1907.315 4458.723 1907.918 4456.722 C 1908.087 4456.353 1908.154 4455.542 1908.684 4455.673 C 1909.894 4455.929 1911.161 4455.862 1912.276 4455.134 C 1912.274 4454.228 1911.576 4453.093 1912.373 4452.379 C 1913.934 4450.389 1915.971 4448.816 1917.014 4446.356 C 1917.773 4444.727 1919.04 4443.471 1919.648 4441.736 C 1920.464 4439.393 1921.662 4437.145 1921.822 4434.582 C 1922.237 4432.269 1922.255 4429.762 1921.396 4427.616 C 1920.963 4426.431 1919.669 4426.345 1918.981 4425.476 C 1918.625 4424.97 1919.177 4424.448 1919.39 4423.999 C 1921.963 4419.828 1924.38 4415.529 1926.589 4411.096 C 1927.104 4410.347 1926.514 4409.238 1927.126 4408.583 C 1928.368 4407.862 1929.728 4407.495 1931.065 4407.089 C 1933.547 4406.808 1936.181 4407.459 1938.507 4406.004 C 1940.728 4404.704 1942.759 4402.973 1944.425 4400.812 C 1945.955 4398.776 1948.232 4397.961 1950.148 4396.552 C 1951.331 4395.77 1952.394 4394.767 1953.529 4393.881 C 1954.38 4393.268 1954.746 4392.129 1955.445 4391.325 C 1956.579 4389.605 1958.308 4388.742 1959.684 4387.333 C 1959.804 4387.304 1960.047 4387.239 1960.171 4387.206 C 1960.495 4386.983 1960.825 4386.753 1961.163 4386.511 C 1961.44 4386.508 1961.728 4386.497 1962.024 4386.47 C 1963.414 4385.461 1964.851 4384.474 1966.355 4383.711 C 1968.121 4383.553 1969.804 4384.461 1971.573 4384.533 C 1972.69 4386.082 1974.357 4387.02 1975.229 4388.816 C 1976.208 4390.135 1977.449 4391.162 1978.343 4392.57 C 1979.547 4393.521 1980.431 4394.872 1981.342 4396.158 C 1981.731 4396.324 1981.941 4396.783 1982.345 4396.937 C 1982.37 4397.079 1982.422 4397.353 1982.451 4397.491 C 1983.093 4398.209 1983.71 4398.964 1984.24 4399.792 C 1985.233 4401.387 1986.704 4402.555 1987.396 4404.402 C 1987.671 4404.654 1987.955 4404.894 1988.242 4405.128 C 1990.711 4408.988 1993.215 4412.836 1996.061 4416.338 C 1998.083 4418.988 1999.637 4422.061 2001.576 4424.787 C 2004.012 4428.721 2006.208 4432.848 2008.464 4436.919 C 2009.25 4438.597 2010.011 4440.293 2010.85 4441.931 C 2011.317 4443.045 2011.756 4444.179 2012.354 4445.208 C 2012.389 4445.395 2012.459 4445.773 2012.492 4445.962 C 2012.674 4446.286 2012.859 4446.601 2013.051 4446.915 C 2013.777 4448.682 2014.663 4450.348 2015.581 4451.983 C 2016.661 4454.146 2017.586 4456.424 2018.83 4458.47 C 2019.463 4459.664 2019.83 4461.049 2020.688 4462.077 C 2020.71 4462.253 2020.755 4462.604 2020.775 4462.782 C 2021.351 4463.712 2021.846 4464.706 2022.359 4465.684 C 2022.976 4466.865 2023.565 4468.062 2024.196 4469.238 C 2024.515 4470.01 2024.922 4470.728 2025.372 4471.403 C 2026.062 4473.215 2027.088 4474.819 2028.077 4476.415 C 2029.377 4479.109 2030.838 4481.692 2032.236 4484.314 C 2033.584 4487.195 2035.184 4489.901 2036.673 4492.681 C 2038.366 4495.687 2039.593 4499.064 2040.249 4502.593 C 2040.261 4503.757 2039.649 4504.823 2039.469 4505.956 C 2038.517 4507.124 2037.621 4508.348 2036.792 4509.624 C 2035.123 4510.957 2033.678 4512.612 2032.059 4514.002 C 2031.234 4514.904 2030.413 4515.801 2029.528 4516.614 C 2028.362 4517.807 2027.264 4519.125 2025.962 4520.112 C 2024.03 4522.124 2022.308 4524.409 2020.25 4526.248 C 2018.651 4528.023 2016.817 4529.47 2015.293 4531.325 C 2015.042 4531.613 2014.702 4531.727 2014.464 4532 C 2014.122 4532.549 2013.688 4533.009 2013.27 4533.462 C 2011.867 4534.612 2010.817 4536.228 2009.409 4537.363 C 2008.432 4538.19 2007.671 4539.303 2006.687 4540.107 C 2004.738 4541.717 2003.053 4543.704 2001.07 4545.252 C 1999.437 4546.952 1997.53 4548.252 1995.855 4549.886 C 1994.192 4551.454 1992.32 4552.686 1990.679 4554.274 C 1990.264 4554.471 1989.892 4554.729 1989.537 4555.003 C 1987.026 4557.238 1984.241 4558.997 1981.703 4561.176 C 1981.22 4561.489 1980.761 4561.832 1980.345 4562.238 C 1976.283 4565.406 1972.437 4568.955 1968.232 4571.875 C 1967.91 4572.074 1967.621 4572.318 1967.351 4572.569 C 1965.883 4573.656 1964.495 4574.882 1963.109 4576.095 C 1961.355 4577.662 1959.338 4578.803 1957.706 4580.553 C 1955.06 4582.656 1952.454 4584.835 1949.992 4587.217 C 1946.693 4590.025 1943.406 4592.868 1939.866 4595.251 C 1937.751 4596.623 1935.672 4598.091 1933.787 4599.863 C 1932.633 4600.913 1931.678 4602.218 1930.487 4603.212 C 1929.129 4603.611 1927.689 4604.189 1926.308 4603.811 Z" style="stroke-opacity: 0.23; fill: rgb(233, 233, 233);" transform="matrix(-0.999684, 0.025145, -0.025145, -0.999684, 2217.827809, 4953.353108)" bx:origin="-0.506569 -0.505694"/>
</svg>